solid Exported from Blender-2.80 (sub 75)
facet normal 0.000000 0.000000 -1.000000
outer loop
vertex 114.500000 -46.600000 2.100000
vertex 14.500000 -46.600000 2.100000
vertex 14.500000 53.400000 2.100000
endloop
endfacet
facet normal 0.000000 -0.000000 1.000000
outer loop
vertex 114.500000 -46.600000 2.100000
vertex 114.500000 53.400000 2.100000
vertex 14.500000 53.400000 2.100000
endloop
endfacet
facet normal -1.000000 0.000000 0.000000
outer loop
vertex 114.500000 -46.600000 2.100000
vertex 114.500000 -46.600000 102.100000
vertex 114.500000 53.400000 102.100000
endloop
endfacet
facet normal 1.000000 0.000000 0.000000
outer loop
vertex 114.500000 -46.600000 2.100000
vertex 114.500000 53.400000 2.100000
vertex 114.500000 53.400000 102.100000
endloop
endfacet
facet normal 0.000000 -1.000000 0.000000
outer loop
vertex 114.5 53.4 2.1
vertex 114.5 53.4 102.1
vertex 14.5 53.4 102.1
endloop
endfacet
facet normal 0.000000 1.000000 -0.000000
outer loop
vertex 114.5 53.4 2.1
vertex 14.5 53.4 2.1
vertex 14.5 53.4 102.1
endloop
endfacet
facet normal -1.000000 0.000000 0.000000
outer loop
vertex 14.5 53.4 2.1
vertex 14.5 -46.6 2.1
vertex 14.5 -46.6 102.1
endloop
endfacet
facet normal 1.000000 0.000000 -0.000000
outer loop
vertex 14.5 53.4 2.1
vertex 14.5 53.4 102.1
vertex 14.5 -46.6 102.1
endloop
endfacet
facet normal 0.000000 -1.000000 0.000000
outer loop
vertex 14.5 -46.6 2.1
vertex 114.5 -46.6 2.1
vertex 114.5 -46.6 102.1
endloop
endfacet
facet normal 0.000000 1.000000 0.000000
outer loop
vertex 14.5 -46.6 2.1
vertex 14.5 -46.6 102.1
vertex 114.5 -46.6 102.1
endloop
endfacet
facet normal 0.000000 0.000000 -1.000000
outer loop
vertex 114.5 -46.6 102.1
vertex 14.5 -46.6 102.1
vertex 14.5 53.4 102.1
endloop
endfacet
facet normal 0.000000 -0.000000 1.000000
outer loop
vertex 114.5 -46.6 102.1
vertex 114.5 53.4 102.1
vertex 14.5 53.4 102.1
endloop
endfacet
endsolid Exported from Blender-2.80 (sub 75)
