solid MeshEditor
facet normal 0.000000 0.000000 -1.000000
outer loop
vertex -0.500000 -1.600000 2.100000
vertex -0.500000 8.400000 2.100000
vertex 9.500000 -1.600000 2.100000
endloop
endfacet
facet normal -0.000000 -0.000000 -1.000000
outer loop
vertex 9.500000 8.400000 2.100000
vertex 9.500000 -1.600000 2.100000
vertex -0.500000 8.400000 2.100000
endloop
endfacet
facet normal 1.000000 0.000000 0.000000
outer loop
vertex 9.500000 -1.600000 2.100000
vertex 9.500000 8.400000 2.100000
vertex 9.500000 8.400000 12.100000
endloop
endfacet
facet normal 1.000000 0.000000 0.000000
outer loop
vertex 9.500000 8.400000 12.100000
vertex 9.500000 -1.600000 12.100000
vertex 9.500000 -1.600000 2.100000
endloop
endfacet
facet normal 0.000000 1.000000 0.000000
outer loop
vertex 9.500000 8.400000 12.100000
vertex 9.500000 8.400000 2.100000
vertex -0.500000 8.400000 12.100000
endloop
endfacet
facet normal -0.000000 1.000000 0.000000
outer loop
vertex -0.500000 8.400000 2.100000
vertex -0.500000 8.400000 12.100000
vertex 9.500000 8.400000 2.100000
endloop
endfacet
facet normal -1.000000 0.000000 0.000000
outer loop
vertex -0.500000 -1.600000 2.100000
vertex -0.500000 -1.600000 12.100000
vertex -0.500000 8.400000 2.100000
endloop
endfacet
facet normal -1.000000 -0.000000 -0.000000
outer loop
vertex -0.500000 8.400000 12.100000
vertex -0.500000 8.400000 2.100000
vertex -0.500000 -1.600000 12.100000
endloop
endfacet
facet normal 0.000000 -1.000000 0.000000
outer loop
vertex -0.500000 -1.600000 12.100000
vertex -0.500000 -1.600000 2.100000
vertex 9.500000 -1.600000 12.100000
endloop
endfacet
facet normal -0.000000 -1.000000 0.000000
outer loop
vertex 9.500000 -1.600000 2.100000
vertex 9.500000 -1.600000 12.100000
vertex -0.500000 -1.600000 2.100000
endloop
endfacet
facet normal -0.000000 0.000000 1.000000
outer loop
vertex -0.500000 8.400000 12.100000
vertex -0.500000 -1.600000 12.100000
vertex 9.500000 8.400000 12.100000
endloop
endfacet
facet normal 0.000000 -0.000000 1.000000
outer loop
vertex 9.500000 -1.600000 12.100000
vertex 9.500000 8.400000 12.100000
vertex -0.500000 -1.600000 12.100000
endloop
endfacet
endsolid MeshEditor