solid Exported from Blender-2.80 (sub 75)
facet normal 0 0 -1
outer loop
vertex 114.5 -46.6 2.1
vertex 14.5 -46.6 2.1
vertex 14.5 53.4 2.1
endloop
endfacet
facet normal 0 -0 1
outer loop
vertex 114.5 -46.6 2.1
vertex 114.5 53.4 2.1
vertex 14.5 53.4 2.1
endloop
endfacet
facet normal -1 0 0
outer loop
vertex 114.5 -46.6 2.1
vertex 114.5 -46.6 102.1
vertex 114.5 53.4 102.1
endloop
endfacet
facet normal 1 0 0
outer loop
vertex 114.5 -46.6 2.1
vertex 114.5 53.4 2.1
vertex 114.5 53.4 102.1
endloop
endfacet
facet normal 0 -1 0
outer loop
vertex 114.5 53.4 2.1
vertex 114.5 53.4 102.1
vertex 14.5 53.4 102.1
endloop
endfacet
facet normal 0 1 -0
outer loop
vertex 114.5 53.4 2.1
vertex 14.5 53.4 2.1
vertex 14.5 53.4 102.1
endloop
endfacet
facet normal -1 0 0
outer loop
vertex 14.5 53.4 2.1
vertex 14.5 -46.6 2.1
vertex 14.5 -46.6 102.1
endloop
endfacet
facet normal 1 0 -0
outer loop
vertex 14.5 53.4 2.1
vertex 14.5 53.4 102.1
vertex 14.5 -46.6 102.1
endloop
endfacet
facet normal 0 -1 0
outer loop
vertex 14.5 -46.6 2.1
vertex 114.5 -46.6 2.1
vertex 114.5 -46.6 102.1
endloop
endfacet
facet normal 0 1 0
outer loop
vertex 14.5 -46.6 2.1
vertex 14.5 -46.6 102.1
vertex 114.5 -46.6 102.1
endloop
endfacet
facet normal 0 0 -1
outer loop
vertex 114.5 -46.6 102.1
vertex 14.5 -46.6 102.1
vertex 14.5 53.4 102.1
endloop
endfacet
facet normal 0 -0 1
outer loop
vertex 114.5 -46.6 102.1
vertex 114.5 53.4 102.1
vertex 14.5 53.4 102.1
endloop
endfacet
endsolid Exported from Blender-2.80 (sub 75)
