solid MeshEditor
facet normal 0.156233 0.050763 0.986415
outer loop
vertex 0.000000 0.000000 10.000000
vertex 3.090170 0.000000 9.510565
vertex 2.500000 1.816356 9.510565
endloop
endfacet
facet normal 0.096557 0.132899 0.986415
outer loop
vertex 0.000000 0.000000 10.000000
vertex 2.500000 1.816356 9.510565
vertex 0.954915 2.938926 9.510565
endloop
endfacet
facet normal -0.000000 0.164273 0.986415
outer loop
vertex 0.000000 0.000000 10.000000
vertex 0.954915 2.938926 9.510565
vertex -0.954915 2.938926 9.510565
endloop
endfacet
facet normal -0.096557 0.132899 0.986415
outer loop
vertex -0.000000 0.000000 10.000000
vertex -0.954915 2.938926 9.510565
vertex -2.500000 1.816356 9.510565
endloop
endfacet
facet normal -0.156233 0.050763 0.986415
outer loop
vertex -0.000000 0.000000 10.000000
vertex -2.500000 1.816356 9.510565
vertex -3.090170 -0.000000 9.510565
endloop
endfacet
facet normal -0.156233 -0.050763 0.986415
outer loop
vertex -0.000000 -0.000000 10.000000
vertex -3.090170 -0.000000 9.510565
vertex -2.500000 -1.816357 9.510565
endloop
endfacet
facet normal -0.096557 -0.132899 0.986415
outer loop
vertex -0.000000 -0.000000 10.000000
vertex -2.500000 -1.816357 9.510565
vertex -0.954915 -2.938926 9.510565
endloop
endfacet
facet normal 0.000000 -0.164273 0.986415
outer loop
vertex -0.000000 -0.000000 10.000000
vertex -0.954915 -2.938926 9.510565
vertex 0.954915 -2.938926 9.510565
endloop
endfacet
facet normal 0.096557 -0.132899 0.986415
outer loop
vertex 0.000000 -0.000000 10.000000
vertex 0.954915 -2.938926 9.510565
vertex 2.500000 -1.816357 9.510565
endloop
endfacet
facet normal 0.156233 -0.050763 0.986415
outer loop
vertex 0.000000 -0.000000 10.000000
vertex 2.500000 -1.816357 9.510565
vertex 3.090170 0.000001 9.510565
endloop
endfacet
facet normal 0.449130 0.145931 0.881468
outer loop
vertex 3.090170 0.000000 9.510565
vertex 5.877852 0.000000 8.090170
vertex 2.500000 1.816356 9.510565
endloop
endfacet
facet normal 0.449130 0.145931 0.881468
outer loop
vertex 2.500000 1.816356 9.510565
vertex 5.877852 0.000000 8.090170
vertex 4.755283 3.454915 8.090170
endloop
endfacet
facet normal 0.277578 0.382053 0.881468
outer loop
vertex 2.500000 1.816356 9.510565
vertex 4.755283 3.454915 8.090170
vertex 0.954915 2.938926 9.510565
endloop
endfacet
facet normal 0.277578 0.382053 0.881468
outer loop
vertex 0.954915 2.938926 9.510565
vertex 4.755283 3.454915 8.090170
vertex 1.816356 5.590170 8.090170
endloop
endfacet
facet normal -0.000000 0.472244 0.881468
outer loop
vertex 0.954915 2.938926 9.510565
vertex 1.816356 5.590170 8.090170
vertex -0.954915 2.938926 9.510565
endloop
endfacet
facet normal -0.000000 0.472244 0.881468
outer loop
vertex -0.954915 2.938926 9.510565
vertex 1.816356 5.590170 8.090170
vertex -1.816357 5.590170 8.090170
endloop
endfacet
facet normal -0.277578 0.382053 0.881468
outer loop
vertex -0.954915 2.938926 9.510565
vertex -1.816357 5.590170 8.090170
vertex -2.500000 1.816356 9.510565
endloop
endfacet
facet normal -0.277578 0.382053 0.881468
outer loop
vertex -2.500000 1.816356 9.510565
vertex -1.816357 5.590170 8.090170
vertex -4.755283 3.454915 8.090170
endloop
endfacet
facet normal -0.449130 0.145931 0.881468
outer loop
vertex -2.500000 1.816356 9.510565
vertex -4.755283 3.454915 8.090170
vertex -3.090170 -0.000000 9.510565
endloop
endfacet
facet normal -0.449130 0.145931 0.881468
outer loop
vertex -3.090170 -0.000000 9.510565
vertex -4.755283 3.454915 8.090170
vertex -5.877852 -0.000001 8.090170
endloop
endfacet
facet normal -0.449130 -0.145931 0.881468
outer loop
vertex -3.090170 -0.000000 9.510565
vertex -5.877852 -0.000001 8.090170
vertex -2.500000 -1.816357 9.510565
endloop
endfacet
facet normal -0.449130 -0.145931 0.881468
outer loop
vertex -2.500000 -1.816357 9.510565
vertex -5.877852 -0.000001 8.090170
vertex -4.755282 -3.454916 8.090170
endloop
endfacet
facet normal -0.277578 -0.382053 0.881468
outer loop
vertex -2.500000 -1.816357 9.510565
vertex -4.755282 -3.454916 8.090170
vertex -0.954915 -2.938926 9.510565
endloop
endfacet
facet normal -0.277578 -0.382053 0.881468
outer loop
vertex -0.954915 -2.938926 9.510565
vertex -4.755282 -3.454916 8.090170
vertex -1.816357 -5.590170 8.090170
endloop
endfacet
facet normal 0.000000 -0.472244 0.881468
outer loop
vertex -0.954915 -2.938926 9.510565
vertex -1.816357 -5.590170 8.090170
vertex 0.954915 -2.938926 9.510565
endloop
endfacet
facet normal 0.000000 -0.472244 0.881468
outer loop
vertex 0.954915 -2.938926 9.510565
vertex -1.816357 -5.590170 8.090170
vertex 1.816357 -5.590170 8.090170
endloop
endfacet
facet normal 0.277578 -0.382053 0.881468
outer loop
vertex 0.954915 -2.938926 9.510565
vertex 1.816357 -5.590170 8.090170
vertex 2.500000 -1.816357 9.510565
endloop
endfacet
facet normal 0.277578 -0.382053 0.881468
outer loop
vertex 2.500000 -1.816357 9.510565
vertex 1.816357 -5.590170 8.090170
vertex 4.755282 -3.454915 8.090170
endloop
endfacet
facet normal 0.449130 -0.145931 0.881468
outer loop
vertex 2.500000 -1.816357 9.510565
vertex 4.755282 -3.454915 8.090170
vertex 3.090170 0.000001 9.510565
endloop
endfacet
facet normal 0.449130 -0.145931 0.881468
outer loop
vertex 3.090170 0.000001 9.510565
vertex 4.755282 -3.454915 8.090170
vertex 5.877852 0.000001 8.090170
endloop
endfacet
facet normal 0.689152 0.223919 0.689152
outer loop
vertex 5.877852 0.000000 8.090170
vertex 8.090170 0.000000 5.877852
vertex 4.755283 3.454915 8.090170
endloop
endfacet
facet normal 0.689152 0.223919 0.689152
outer loop
vertex 4.755283 3.454915 8.090170
vertex 8.090170 0.000000 5.877852
vertex 6.545085 4.755283 5.877852
endloop
endfacet
facet normal 0.425919 0.586227 0.689152
outer loop
vertex 4.755283 3.454915 8.090170
vertex 6.545085 4.755283 5.877852
vertex 1.816356 5.590170 8.090170
endloop
endfacet
facet normal 0.425919 0.586227 0.689152
outer loop
vertex 1.816356 5.590170 8.090170
vertex 6.545085 4.755283 5.877852
vertex 2.500000 7.694209 5.877852
endloop
endfacet
facet normal -0.000000 0.724617 0.689152
outer loop
vertex 1.816356 5.590170 8.090170
vertex 2.500000 7.694209 5.877852
vertex -1.816357 5.590170 8.090170
endloop
endfacet
facet normal -0.000000 0.724617 0.689152
outer loop
vertex -1.816357 5.590170 8.090170
vertex 2.500000 7.694209 5.877852
vertex -2.500000 7.694209 5.877852
endloop
endfacet
facet normal -0.425919 0.586227 0.689152
outer loop
vertex -1.816357 5.590170 8.090170
vertex -2.500000 7.694209 5.877852
vertex -4.755283 3.454915 8.090170
endloop
endfacet
facet normal -0.425919 0.586227 0.689152
outer loop
vertex -4.755283 3.454915 8.090170
vertex -2.500000 7.694209 5.877852
vertex -6.545086 4.755282 5.877852
endloop
endfacet
facet normal -0.689152 0.223919 0.689152
outer loop
vertex -4.755283 3.454915 8.090170
vertex -6.545086 4.755282 5.877852
vertex -5.877852 -0.000001 8.090170
endloop
endfacet
facet normal -0.689152 0.223919 0.689152
outer loop
vertex -5.877852 -0.000001 8.090170
vertex -6.545086 4.755282 5.877852
vertex -8.090170 -0.000001 5.877852
endloop
endfacet
facet normal -0.689152 -0.223919 0.689152
outer loop
vertex -5.877852 -0.000001 8.090170
vertex -8.090170 -0.000001 5.877852
vertex -4.755282 -3.454916 8.090170
endloop
endfacet
facet normal -0.689152 -0.223919 0.689152
outer loop
vertex -4.755282 -3.454916 8.090170
vertex -8.090170 -0.000001 5.877852
vertex -6.545085 -4.755284 5.877852
endloop
endfacet
facet normal -0.425919 -0.586228 0.689152
outer loop
vertex -4.755282 -3.454916 8.090170
vertex -6.545085 -4.755284 5.877852
vertex -1.816357 -5.590170 8.090170
endloop
endfacet
facet normal -0.425919 -0.586228 0.689152
outer loop
vertex -1.816357 -5.590170 8.090170
vertex -6.545085 -4.755284 5.877852
vertex -2.500001 -7.694209 5.877852
endloop
endfacet
facet normal 0.000000 -0.724617 0.689152
outer loop
vertex -1.816357 -5.590170 8.090170
vertex -2.500001 -7.694209 5.877852
vertex 1.816357 -5.590170 8.090170
endloop
endfacet
facet normal 0.000000 -0.724617 0.689152
outer loop
vertex 1.816357 -5.590170 8.090170
vertex -2.500001 -7.694209 5.877852
vertex 2.500001 -7.694209 5.877852
endloop
endfacet
facet normal 0.425919 -0.586227 0.689152
outer loop
vertex 1.816357 -5.590170 8.090170
vertex 2.500001 -7.694209 5.877852
vertex 4.755282 -3.454915 8.090170
endloop
endfacet
facet normal 0.425919 -0.586227 0.689152
outer loop
vertex 4.755282 -3.454915 8.090170
vertex 2.500001 -7.694209 5.877852
vertex 6.545085 -4.755283 5.877852
endloop
endfacet
facet normal 0.689152 -0.223919 0.689152
outer loop
vertex 4.755282 -3.454915 8.090170
vertex 6.545085 -4.755283 5.877852
vertex 5.877852 0.000001 8.090170
endloop
endfacet
facet normal 0.689152 -0.223919 0.689152
outer loop
vertex 5.877852 0.000001 8.090170
vertex 6.545085 -4.755283 5.877852
vertex 8.090170 0.000001 5.877852
endloop
endfacet
facet normal 0.855862 0.278086 0.436083
outer loop
vertex 8.090170 0.000000 5.877852
vertex 9.510565 0.000000 3.090170
vertex 6.545085 4.755283 5.877852
endloop
endfacet
facet normal 0.855862 0.278086 0.436083
outer loop
vertex 6.545085 4.755283 5.877852
vertex 9.510565 0.000000 3.090170
vertex 7.694209 5.590170 3.090170
endloop
endfacet
facet normal 0.528952 0.728039 0.436083
outer loop
vertex 6.545085 4.755283 5.877852
vertex 7.694209 5.590170 3.090170
vertex 2.500000 7.694209 5.877852
endloop
endfacet
facet normal 0.528952 0.728039 0.436083
outer loop
vertex 2.500000 7.694209 5.877852
vertex 7.694209 5.590170 3.090170
vertex 2.938926 9.045085 3.090170
endloop
endfacet
facet normal -0.000000 0.899906 0.436083
outer loop
vertex 2.500000 7.694209 5.877852
vertex 2.938926 9.045085 3.090170
vertex -2.500000 7.694209 5.877852
endloop
endfacet
facet normal -0.000000 0.899906 0.436083
outer loop
vertex -2.500000 7.694209 5.877852
vertex 2.938926 9.045085 3.090170
vertex -2.938927 9.045085 3.090170
endloop
endfacet
facet normal -0.528952 0.728039 0.436083
outer loop
vertex -2.500000 7.694209 5.877852
vertex -2.938927 9.045085 3.090170
vertex -6.545086 4.755282 5.877852
endloop
endfacet
facet normal -0.528952 0.728039 0.436083
outer loop
vertex -6.545086 4.755282 5.877852
vertex -2.938927 9.045085 3.090170
vertex -7.694210 5.590169 3.090170
endloop
endfacet
facet normal -0.855862 0.278086 0.436083
outer loop
vertex -6.545086 4.755282 5.877852
vertex -7.694210 5.590169 3.090170
vertex -8.090170 -0.000001 5.877852
endloop
endfacet
facet normal -0.855862 0.278086 0.436083
outer loop
vertex -8.090170 -0.000001 5.877852
vertex -7.694210 5.590169 3.090170
vertex -9.510565 -0.000001 3.090170
endloop
endfacet
facet normal -0.855862 -0.278086 0.436083
outer loop
vertex -8.090170 -0.000001 5.877852
vertex -9.510565 -0.000001 3.090170
vertex -6.545085 -4.755284 5.877852
endloop
endfacet
facet normal -0.855862 -0.278086 0.436083
outer loop
vertex -6.545085 -4.755284 5.877852
vertex -9.510565 -0.000001 3.090170
vertex -7.694209 -5.590171 3.090170
endloop
endfacet
facet normal -0.528952 -0.728039 0.436083
outer loop
vertex -6.545085 -4.755284 5.877852
vertex -7.694209 -5.590171 3.090170
vertex -2.500001 -7.694209 5.877852
endloop
endfacet
facet normal -0.528952 -0.728039 0.436083
outer loop
vertex -2.500001 -7.694209 5.877852
vertex -7.694209 -5.590171 3.090170
vertex -2.938927 -9.045085 3.090170
endloop
endfacet
facet normal 0.000000 -0.899906 0.436083
outer loop
vertex -2.500001 -7.694209 5.877852
vertex -2.938927 -9.045085 3.090170
vertex 2.500001 -7.694209 5.877852
endloop
endfacet
facet normal 0.000000 -0.899906 0.436083
outer loop
vertex 2.500001 -7.694209 5.877852
vertex -2.938927 -9.045085 3.090170
vertex 2.938928 -9.045085 3.090170
endloop
endfacet
facet normal 0.528952 -0.728039 0.436083
outer loop
vertex 2.500001 -7.694209 5.877852
vertex 2.938928 -9.045085 3.090170
vertex 6.545085 -4.755283 5.877852
endloop
endfacet
facet normal 0.528952 -0.728039 0.436083
outer loop
vertex 6.545085 -4.755283 5.877852
vertex 2.938928 -9.045085 3.090170
vertex 7.694209 -5.590171 3.090170
endloop
endfacet
facet normal 0.855862 -0.278086 0.436083
outer loop
vertex 6.545085 -4.755283 5.877852
vertex 7.694209 -5.590171 3.090170
vertex 8.090170 0.000001 5.877852
endloop
endfacet
facet normal 0.855862 -0.278086 0.436083
outer loop
vertex 8.090170 0.000001 5.877852
vertex 7.694209 -5.590171 3.090170
vertex 9.510565 0.000002 3.090170
endloop
endfacet
facet normal 0.940447 0.305570 0.148952
outer loop
vertex 9.510565 0.000000 3.090170
vertex 10.000000 0.000000 -0.000000
vertex 7.694209 5.590170 3.090170
endloop
endfacet
facet normal 0.940447 0.305570 0.148952
outer loop
vertex 7.694209 5.590170 3.090170
vertex 10.000000 0.000000 -0.000000
vertex 8.090170 5.877852 -0.000000
endloop
endfacet
facet normal 0.581228 0.799992 0.148952
outer loop
vertex 7.694209 5.590170 3.090170
vertex 8.090170 5.877852 -0.000000
vertex 2.938926 9.045085 3.090170
endloop
endfacet
facet normal 0.581228 0.799992 0.148952
outer loop
vertex 2.938926 9.045085 3.090170
vertex 8.090170 5.877852 -0.000000
vertex 3.090170 9.510565 -0.000000
endloop
endfacet
facet normal -0.000000 0.988844 0.148952
outer loop
vertex 2.938926 9.045085 3.090170
vertex 3.090170 9.510565 -0.000000
vertex -2.938927 9.045085 3.090170
endloop
endfacet
facet normal -0.000000 0.988844 0.148952
outer loop
vertex -2.938927 9.045085 3.090170
vertex 3.090170 9.510565 -0.000000
vertex -3.090170 9.510565 -0.000000
endloop
endfacet
facet normal -0.581228 0.799992 0.148952
outer loop
vertex -2.938927 9.045085 3.090170
vertex -3.090170 9.510565 -0.000000
vertex -7.694210 5.590169 3.090170
endloop
endfacet
facet normal -0.581228 0.799992 0.148952
outer loop
vertex -7.694210 5.590169 3.090170
vertex -3.090170 9.510565 -0.000000
vertex -8.090171 5.877852 -0.000000
endloop
endfacet
facet normal -0.940447 0.305570 0.148952
outer loop
vertex -7.694210 5.590169 3.090170
vertex -8.090171 5.877852 -0.000000
vertex -9.510565 -0.000001 3.090170
endloop
endfacet
facet normal -0.940447 0.305570 0.148952
outer loop
vertex -9.510565 -0.000001 3.090170
vertex -8.090171 5.877852 -0.000000
vertex -10.000000 -0.000001 -0.000000
endloop
endfacet
facet normal -0.940447 -0.305570 0.148952
outer loop
vertex -9.510565 -0.000001 3.090170
vertex -10.000000 -0.000001 -0.000000
vertex -7.694209 -5.590171 3.090170
endloop
endfacet
facet normal -0.940447 -0.305570 0.148952
outer loop
vertex -7.694209 -5.590171 3.090170
vertex -10.000000 -0.000001 -0.000000
vertex -8.090169 -5.877854 -0.000000
endloop
endfacet
facet normal -0.581228 -0.799992 0.148952
outer loop
vertex -7.694209 -5.590171 3.090170
vertex -8.090169 -5.877854 -0.000000
vertex -2.938927 -9.045085 3.090170
endloop
endfacet
facet normal -0.581228 -0.799992 0.148952
outer loop
vertex -2.938927 -9.045085 3.090170
vertex -8.090169 -5.877854 -0.000000
vertex -3.090171 -9.510565 -0.000000
endloop
endfacet
facet normal 0.000000 -0.988844 0.148952
outer loop
vertex -2.938927 -9.045085 3.090170
vertex -3.090171 -9.510565 -0.000000
vertex 2.938928 -9.045085 3.090170
endloop
endfacet
facet normal 0.000000 -0.988844 0.148952
outer loop
vertex 2.938928 -9.045085 3.090170
vertex -3.090171 -9.510565 -0.000000
vertex 3.090171 -9.510565 -0.000000
endloop
endfacet
facet normal 0.581228 -0.799992 0.148952
outer loop
vertex 2.938928 -9.045085 3.090170
vertex 3.090171 -9.510565 -0.000000
vertex 7.694209 -5.590171 3.090170
endloop
endfacet
facet normal 0.581228 -0.799992 0.148952
outer loop
vertex 7.694209 -5.590171 3.090170
vertex 3.090171 -9.510565 -0.000000
vertex 8.090169 -5.877853 -0.000000
endloop
endfacet
facet normal 0.940447 -0.305570 0.148952
outer loop
vertex 7.694209 -5.590171 3.090170
vertex 8.090169 -5.877853 -0.000000
vertex 9.510565 0.000002 3.090170
endloop
endfacet
facet normal 0.940447 -0.305570 0.148952
outer loop
vertex 9.510565 0.000002 3.090170
vertex 8.090169 -5.877853 -0.000000
vertex 10.000000 0.000002 -0.000000
endloop
endfacet
facet normal 0.940447 0.305570 -0.148952
outer loop
vertex 10.000000 0.000000 -0.000000
vertex 9.510565 0.000000 -3.090170
vertex 8.090170 5.877852 -0.000000
endloop
endfacet
facet normal 0.940447 0.305570 -0.148952
outer loop
vertex 8.090170 5.877852 -0.000000
vertex 9.510565 0.000000 -3.090170
vertex 7.694209 5.590170 -3.090170
endloop
endfacet
facet normal 0.581228 0.799992 -0.148952
outer loop
vertex 8.090170 5.877852 -0.000000
vertex 7.694209 5.590170 -3.090170
vertex 3.090170 9.510565 -0.000000
endloop
endfacet
facet normal 0.581228 0.799992 -0.148952
outer loop
vertex 3.090170 9.510565 -0.000000
vertex 7.694209 5.590170 -3.090170
vertex 2.938926 9.045085 -3.090170
endloop
endfacet
facet normal -0.000000 0.988844 -0.148952
outer loop
vertex 3.090170 9.510565 -0.000000
vertex 2.938926 9.045085 -3.090170
vertex -3.090170 9.510565 -0.000000
endloop
endfacet
facet normal -0.000000 0.988844 -0.148952
outer loop
vertex -3.090170 9.510565 -0.000000
vertex 2.938926 9.045085 -3.090170
vertex -2.938927 9.045084 -3.090170
endloop
endfacet
facet normal -0.581228 0.799992 -0.148952
outer loop
vertex -3.090170 9.510565 -0.000000
vertex -2.938927 9.045084 -3.090170
vertex -8.090171 5.877852 -0.000000
endloop
endfacet
facet normal -0.581228 0.799992 -0.148952
outer loop
vertex -8.090171 5.877852 -0.000000
vertex -2.938927 9.045084 -3.090170
vertex -7.694209 5.590169 -3.090170
endloop
endfacet
facet normal -0.940447 0.305570 -0.148952
outer loop
vertex -8.090171 5.877852 -0.000000
vertex -7.694209 5.590169 -3.090170
vertex -10.000000 -0.000001 -0.000000
endloop
endfacet
facet normal -0.940447 0.305570 -0.148952
outer loop
vertex -10.000000 -0.000001 -0.000000
vertex -7.694209 5.590169 -3.090170
vertex -9.510565 -0.000001 -3.090170
endloop
endfacet
facet normal -0.940447 -0.305570 -0.148952
outer loop
vertex -10.000000 -0.000001 -0.000000
vertex -9.510565 -0.000001 -3.090170
vertex -8.090169 -5.877854 -0.000000
endloop
endfacet
facet normal -0.940447 -0.305570 -0.148952
outer loop
vertex -8.090169 -5.877854 -0.000000
vertex -9.510565 -0.000001 -3.090170
vertex -7.694208 -5.590171 -3.090170
endloop
endfacet
facet normal -0.581228 -0.799992 -0.148952
outer loop
vertex -8.090169 -5.877854 -0.000000
vertex -7.694208 -5.590171 -3.090170
vertex -3.090171 -9.510565 -0.000000
endloop
endfacet
facet normal -0.581228 -0.799992 -0.148952
outer loop
vertex -3.090171 -9.510565 -0.000000
vertex -7.694208 -5.590171 -3.090170
vertex -2.938927 -9.045084 -3.090170
endloop
endfacet
facet normal 0.000000 -0.988844 -0.148952
outer loop
vertex -3.090171 -9.510565 -0.000000
vertex -2.938927 -9.045084 -3.090170
vertex 3.090171 -9.510565 -0.000000
endloop
endfacet
facet normal 0.000000 -0.988844 -0.148952
outer loop
vertex 3.090171 -9.510565 -0.000000
vertex -2.938927 -9.045084 -3.090170
vertex 2.938927 -9.045084 -3.090170
endloop
endfacet
facet normal 0.581228 -0.799992 -0.148952
outer loop
vertex 3.090171 -9.510565 -0.000000
vertex 2.938927 -9.045084 -3.090170
vertex 8.090169 -5.877853 -0.000000
endloop
endfacet
facet normal 0.581228 -0.799992 -0.148952
outer loop
vertex 8.090169 -5.877853 -0.000000
vertex 2.938927 -9.045084 -3.090170
vertex 7.694208 -5.590170 -3.090170
endloop
endfacet
facet normal 0.940447 -0.305570 -0.148952
outer loop
vertex 8.090169 -5.877853 -0.000000
vertex 7.694208 -5.590170 -3.090170
vertex 10.000000 0.000002 -0.000000
endloop
endfacet
facet normal 0.940447 -0.305570 -0.148952
outer loop
vertex 10.000000 0.000002 -0.000000
vertex 7.694208 -5.590170 -3.090170
vertex 9.510565 0.000002 -3.090170
endloop
endfacet
facet normal 0.855862 0.278086 -0.436083
outer loop
vertex 9.510565 0.000000 -3.090170
vertex 8.090170 0.000000 -5.877852
vertex 7.694209 5.590170 -3.090170
endloop
endfacet
facet normal 0.855862 0.278086 -0.436083
outer loop
vertex 7.694209 5.590170 -3.090170
vertex 8.090170 0.000000 -5.877852
vertex 6.545085 4.755283 -5.877852
endloop
endfacet
facet normal 0.528952 0.728039 -0.436083
outer loop
vertex 7.694209 5.590170 -3.090170
vertex 6.545085 4.755283 -5.877852
vertex 2.938926 9.045085 -3.090170
endloop
endfacet
facet normal 0.528952 0.728039 -0.436083
outer loop
vertex 2.938926 9.045085 -3.090170
vertex 6.545085 4.755283 -5.877852
vertex 2.500000 7.694209 -5.877852
endloop
endfacet
facet normal -0.000000 0.899906 -0.436083
outer loop
vertex 2.938926 9.045085 -3.090170
vertex 2.500000 7.694209 -5.877852
vertex -2.938927 9.045084 -3.090170
endloop
endfacet
facet normal -0.000000 0.899906 -0.436083
outer loop
vertex -2.938927 9.045084 -3.090170
vertex 2.500000 7.694209 -5.877852
vertex -2.500000 7.694209 -5.877852
endloop
endfacet
facet normal -0.528952 0.728039 -0.436083
outer loop
vertex -2.938927 9.045084 -3.090170
vertex -2.500000 7.694209 -5.877852
vertex -7.694209 5.590169 -3.090170
endloop
endfacet
facet normal -0.528952 0.728039 -0.436083
outer loop
vertex -7.694209 5.590169 -3.090170
vertex -2.500000 7.694209 -5.877852
vertex -6.545086 4.755282 -5.877852
endloop
endfacet
facet normal -0.855862 0.278086 -0.436083
outer loop
vertex -7.694209 5.590169 -3.090170
vertex -6.545086 4.755282 -5.877852
vertex -9.510565 -0.000001 -3.090170
endloop
endfacet
facet normal -0.855862 0.278086 -0.436083
outer loop
vertex -9.510565 -0.000001 -3.090170
vertex -6.545086 4.755282 -5.877852
vertex -8.090170 -0.000001 -5.877852
endloop
endfacet
facet normal -0.855862 -0.278086 -0.436083
outer loop
vertex -9.510565 -0.000001 -3.090170
vertex -8.090170 -0.000001 -5.877852
vertex -7.694208 -5.590171 -3.090170
endloop
endfacet
facet normal -0.855862 -0.278086 -0.436083
outer loop
vertex -7.694208 -5.590171 -3.090170
vertex -8.090170 -0.000001 -5.877852
vertex -6.545085 -4.755284 -5.877852
endloop
endfacet
facet normal -0.528952 -0.728039 -0.436083
outer loop
vertex -7.694208 -5.590171 -3.090170
vertex -6.545085 -4.755284 -5.877852
vertex -2.938927 -9.045084 -3.090170
endloop
endfacet
facet normal -0.528952 -0.728039 -0.436083
outer loop
vertex -2.938927 -9.045084 -3.090170
vertex -6.545085 -4.755284 -5.877852
vertex -2.500001 -7.694209 -5.877852
endloop
endfacet
facet normal 0.000000 -0.899906 -0.436083
outer loop
vertex -2.938927 -9.045084 -3.090170
vertex -2.500001 -7.694209 -5.877852
vertex 2.938927 -9.045084 -3.090170
endloop
endfacet
facet normal 0.000000 -0.899906 -0.436083
outer loop
vertex 2.938927 -9.045084 -3.090170
vertex -2.500001 -7.694209 -5.877852
vertex 2.500001 -7.694209 -5.877852
endloop
endfacet
facet normal 0.528952 -0.728039 -0.436083
outer loop
vertex 2.938927 -9.045084 -3.090170
vertex 2.500001 -7.694209 -5.877852
vertex 7.694208 -5.590170 -3.090170
endloop
endfacet
facet normal 0.528952 -0.728039 -0.436083
outer loop
vertex 7.694208 -5.590170 -3.090170
vertex 2.500001 -7.694209 -5.877852
vertex 6.545085 -4.755283 -5.877852
endloop
endfacet
facet normal 0.855862 -0.278086 -0.436083
outer loop
vertex 7.694208 -5.590170 -3.090170
vertex 6.545085 -4.755283 -5.877852
vertex 9.510565 0.000002 -3.090170
endloop
endfacet
facet normal 0.855862 -0.278086 -0.436083
outer loop
vertex 9.510565 0.000002 -3.090170
vertex 6.545085 -4.755283 -5.877852
vertex 8.090170 0.000001 -5.877852
endloop
endfacet
facet normal 0.689152 0.223919 -0.689152
outer loop
vertex 8.090170 0.000000 -5.877852
vertex 5.877852 0.000000 -8.090171
vertex 6.545085 4.755283 -5.877852
endloop
endfacet
facet normal 0.689152 0.223919 -0.689152
outer loop
vertex 6.545085 4.755283 -5.877852
vertex 5.877852 0.000000 -8.090171
vertex 4.755282 3.454915 -8.090171
endloop
endfacet
facet normal 0.425919 0.586228 -0.689152
outer loop
vertex 6.545085 4.755283 -5.877852
vertex 4.755282 3.454915 -8.090171
vertex 2.500000 7.694209 -5.877852
endloop
endfacet
facet normal 0.425919 0.586228 -0.689152
outer loop
vertex 2.500000 7.694209 -5.877852
vertex 4.755282 3.454915 -8.090171
vertex 1.816356 5.590169 -8.090171
endloop
endfacet
facet normal -0.000000 0.724617 -0.689152
outer loop
vertex 2.500000 7.694209 -5.877852
vertex 1.816356 5.590169 -8.090171
vertex -2.500000 7.694209 -5.877852
endloop
endfacet
facet normal -0.000000 0.724617 -0.689152
outer loop
vertex -2.500000 7.694209 -5.877852
vertex 1.816356 5.590169 -8.090171
vertex -1.816356 5.590169 -8.090171
endloop
endfacet
facet normal -0.425919 0.586228 -0.689152
outer loop
vertex -2.500000 7.694209 -5.877852
vertex -1.816356 5.590169 -8.090171
vertex -6.545086 4.755282 -5.877852
endloop
endfacet
facet normal -0.425919 0.586228 -0.689152
outer loop
vertex -6.545086 4.755282 -5.877852
vertex -1.816356 5.590169 -8.090171
vertex -4.755282 3.454914 -8.090171
endloop
endfacet
facet normal -0.689152 0.223919 -0.689152
outer loop
vertex -6.545086 4.755282 -5.877852
vertex -4.755282 3.454914 -8.090171
vertex -8.090170 -0.000001 -5.877852
endloop
endfacet
facet normal -0.689152 0.223919 -0.689152
outer loop
vertex -8.090170 -0.000001 -5.877852
vertex -4.755282 3.454914 -8.090171
vertex -5.877852 -0.000001 -8.090171
endloop
endfacet
facet normal -0.689152 -0.223919 -0.689152
outer loop
vertex -8.090170 -0.000001 -5.877852
vertex -5.877852 -0.000001 -8.090171
vertex -6.545085 -4.755284 -5.877852
endloop
endfacet
facet normal -0.689152 -0.223919 -0.689152
outer loop
vertex -6.545085 -4.755284 -5.877852
vertex -5.877852 -0.000001 -8.090171
vertex -4.755282 -3.454915 -8.090171
endloop
endfacet
facet normal -0.425919 -0.586228 -0.689152
outer loop
vertex -6.545085 -4.755284 -5.877852
vertex -4.755282 -3.454915 -8.090171
vertex -2.500001 -7.694209 -5.877852
endloop
endfacet
facet normal -0.425919 -0.586228 -0.689152
outer loop
vertex -2.500001 -7.694209 -5.877852
vertex -4.755282 -3.454915 -8.090171
vertex -1.816357 -5.590169 -8.090171
endloop
endfacet
facet normal 0.000000 -0.724617 -0.689152
outer loop
vertex -2.500001 -7.694209 -5.877852
vertex -1.816357 -5.590169 -8.090171
vertex 2.500001 -7.694209 -5.877852
endloop
endfacet
facet normal 0.000000 -0.724617 -0.689152
outer loop
vertex 2.500001 -7.694209 -5.877852
vertex -1.816357 -5.590169 -8.090171
vertex 1.816357 -5.590169 -8.090171
endloop
endfacet
facet normal 0.425919 -0.586228 -0.689152
outer loop
vertex 2.500001 -7.694209 -5.877852
vertex 1.816357 -5.590169 -8.090171
vertex 6.545085 -4.755283 -5.877852
endloop
endfacet
facet normal 0.425919 -0.586228 -0.689152
outer loop
vertex 6.545085 -4.755283 -5.877852
vertex 1.816357 -5.590169 -8.090171
vertex 4.755282 -3.454915 -8.090171
endloop
endfacet
facet normal 0.689152 -0.223919 -0.689152
outer loop
vertex 6.545085 -4.755283 -5.877852
vertex 4.755282 -3.454915 -8.090171
vertex 8.090170 0.000001 -5.877852
endloop
endfacet
facet normal 0.689152 -0.223919 -0.689152
outer loop
vertex 8.090170 0.000001 -5.877852
vertex 4.755282 -3.454915 -8.090171
vertex 5.877852 0.000001 -8.090171
endloop
endfacet
facet normal 0.449130 0.145931 -0.881468
outer loop
vertex 5.877852 0.000000 -8.090171
vertex 3.090170 0.000000 -9.510565
vertex 4.755282 3.454915 -8.090171
endloop
endfacet
facet normal 0.449130 0.145931 -0.881468
outer loop
vertex 4.755282 3.454915 -8.090171
vertex 3.090170 0.000000 -9.510565
vertex 2.500000 1.816357 -9.510565
endloop
endfacet
facet normal 0.277578 0.382053 -0.881468
outer loop
vertex 4.755282 3.454915 -8.090171
vertex 2.500000 1.816357 -9.510565
vertex 1.816356 5.590169 -8.090171
endloop
endfacet
facet normal 0.277578 0.382053 -0.881468
outer loop
vertex 1.816356 5.590169 -8.090171
vertex 2.500000 1.816357 -9.510565
vertex 0.954915 2.938927 -9.510565
endloop
endfacet
facet normal -0.000000 0.472244 -0.881468
outer loop
vertex 1.816356 5.590169 -8.090171
vertex 0.954915 2.938927 -9.510565
vertex -1.816356 5.590169 -8.090171
endloop
endfacet
facet normal -0.000000 0.472244 -0.881468
outer loop
vertex -1.816356 5.590169 -8.090171
vertex 0.954915 2.938927 -9.510565
vertex -0.954915 2.938927 -9.510565
endloop
endfacet
facet normal -0.277578 0.382053 -0.881468
outer loop
vertex -1.816356 5.590169 -8.090171
vertex -0.954915 2.938927 -9.510565
vertex -4.755282 3.454914 -8.090171
endloop
endfacet
facet normal -0.277578 0.382053 -0.881468
outer loop
vertex -4.755282 3.454914 -8.090171
vertex -0.954915 2.938927 -9.510565
vertex -2.500001 1.816356 -9.510565
endloop
endfacet
facet normal -0.449130 0.145931 -0.881468
outer loop
vertex -4.755282 3.454914 -8.090171
vertex -2.500001 1.816356 -9.510565
vertex -5.877852 -0.000001 -8.090171
endloop
endfacet
facet normal -0.449130 0.145931 -0.881468
outer loop
vertex -5.877852 -0.000001 -8.090171
vertex -2.500001 1.816356 -9.510565
vertex -3.090170 -0.000000 -9.510565
endloop
endfacet
facet normal -0.449130 -0.145931 -0.881468
outer loop
vertex -5.877852 -0.000001 -8.090171
vertex -3.090170 -0.000000 -9.510565
vertex -4.755282 -3.454915 -8.090171
endloop
endfacet
facet normal -0.449130 -0.145931 -0.881468
outer loop
vertex -4.755282 -3.454915 -8.090171
vertex -3.090170 -0.000000 -9.510565
vertex -2.500000 -1.816357 -9.510565
endloop
endfacet
facet normal -0.277578 -0.382053 -0.881468
outer loop
vertex -4.755282 -3.454915 -8.090171
vertex -2.500000 -1.816357 -9.510565
vertex -1.816357 -5.590169 -8.090171
endloop
endfacet
facet normal -0.277578 -0.382053 -0.881468
outer loop
vertex -1.816357 -5.590169 -8.090171
vertex -2.500000 -1.816357 -9.510565
vertex -0.954915 -2.938927 -9.510565
endloop
endfacet
facet normal 0.000000 -0.472244 -0.881468
outer loop
vertex -1.816357 -5.590169 -8.090171
vertex -0.954915 -2.938927 -9.510565
vertex 1.816357 -5.590169 -8.090171
endloop
endfacet
facet normal 0.000000 -0.472244 -0.881468
outer loop
vertex 1.816357 -5.590169 -8.090171
vertex -0.954915 -2.938927 -9.510565
vertex 0.954916 -2.938927 -9.510565
endloop
endfacet
facet normal 0.277578 -0.382053 -0.881468
outer loop
vertex 1.816357 -5.590169 -8.090171
vertex 0.954916 -2.938927 -9.510565
vertex 4.755282 -3.454915 -8.090171
endloop
endfacet
facet normal 0.277578 -0.382053 -0.881468
outer loop
vertex 4.755282 -3.454915 -8.090171
vertex 0.954916 -2.938927 -9.510565
vertex 2.500000 -1.816357 -9.510565
endloop
endfacet
facet normal 0.449130 -0.145931 -0.881468
outer loop
vertex 4.755282 -3.454915 -8.090171
vertex 2.500000 -1.816357 -9.510565
vertex 5.877852 0.000001 -8.090171
endloop
endfacet
facet normal 0.449130 -0.145931 -0.881468
outer loop
vertex 5.877852 0.000001 -8.090171
vertex 2.500000 -1.816357 -9.510565
vertex 3.090170 0.000001 -9.510565
endloop
endfacet
facet normal 0.156233 0.050763 -0.986415
outer loop
vertex -0.000001 -0.000001 -10.000000
vertex 2.500000 1.816357 -9.510565
vertex 3.090170 0.000000 -9.510565
endloop
endfacet
facet normal 0.096557 0.132900 -0.986415
outer loop
vertex -0.000000 -0.000001 -10.000000
vertex 0.954915 2.938927 -9.510565
vertex 2.500000 1.816357 -9.510565
endloop
endfacet
facet normal -0.000000 0.164273 -0.986415
outer loop
vertex 0.000000 -0.000001 -10.000000
vertex -0.954915 2.938927 -9.510565
vertex 0.954915 2.938927 -9.510565
endloop
endfacet
facet normal -0.096557 0.132900 -0.986415
outer loop
vertex 0.000001 -0.000001 -10.000000
vertex -2.500001 1.816356 -9.510565
vertex -0.954915 2.938927 -9.510565
endloop
endfacet
facet normal -0.156233 0.050763 -0.986415
outer loop
vertex 0.000001 0.000000 -10.000000
vertex -3.090170 -0.000000 -9.510565
vertex -2.500001 1.816356 -9.510565
endloop
endfacet
facet normal -0.156233 -0.050763 -0.986415
outer loop
vertex 0.000001 0.000001 -10.000000
vertex -2.500000 -1.816357 -9.510565
vertex -3.090170 -0.000000 -9.510565
endloop
endfacet
facet normal -0.096557 -0.132900 -0.986415
outer loop
vertex 0.000000 0.000001 -10.000000
vertex -0.954915 -2.938927 -9.510565
vertex -2.500000 -1.816357 -9.510565
endloop
endfacet
facet normal -0.000000 -0.164273 -0.986415
outer loop
vertex -0.000000 0.000001 -10.000000
vertex 0.954916 -2.938927 -9.510565
vertex -0.954915 -2.938927 -9.510565
endloop
endfacet
facet normal 0.096557 -0.132900 -0.986415
outer loop
vertex -0.000001 0.000001 -10.000000
vertex 2.500000 -1.816357 -9.510565
vertex 0.954916 -2.938927 -9.510565
endloop
endfacet
facet normal 0.156233 -0.050763 -0.986415
outer loop
vertex -0.000001 -0.000000 -10.000000
vertex 3.090170 0.000001 -9.510565
vertex 2.500000 -1.816357 -9.510565
endloop
endfacet
endsolid MeshEditor